<svg preserveAspectRatio="none" overflow="visible" style="display: block;" width="1440" height="960" viewBox="0 0 1440 960" fill="none" xmlns="http://www.w3.org/2000/svg">
<g id="Graph paper &#194;&#183; editable ruling" clip-path="url(#clip0_0_20)">
<path id="Vector" opacity="0.32" d="M0 960V0H1440M24 0V960M48 0V960M72 0V960M96 0V960M120 0V960M144 0V960M168 0V960M192 0V960M216 0V960M240 0V960M264 0V960M288 0V960M312 0V960M336 0V960M360 0V960M384 0V960M408 0V960M432 0V960M456 0V960M480 0V960M504 0V960M528 0V960M552 0V960M576 0V960M600 0V960M624 0V960M648 0V960M672 0V960M696 0V960M720 0V960M744 0V960M768 0V960M792 0V960M816 0V960M840 0V960M864 0V960M888 0V960M912 0V960M936 0V960M960 0V960M984 0V960M1008 0V960M1032 0V960M1056 0V960M1080 0V960M1104 0V960M1128 0V960M1152 0V960M1176 0V960M1200 0V960M1224 0V960M1248 0V960M1272 0V960M1296 0V960M1320 0V960M1344 0V960M1368 0V960M1392 0V960M1416 0V960M0 24H1440M0 48H1440M0 72H1440M0 96H1440M0 120H1440M0 144H1440M0 168H1440M0 192H1440M0 216H1440M0 240H1440M0 264H1440M0 288H1440M0 312H1440M0 336H1440M0 360H1440M0 384H1440M0 408H1440M0 432H1440M0 456H1440M0 480H1440M0 504H1440M0 528H1440M0 552H1440M0 576H1440M0 600H1440M0 624H1440M0 648H1440M0 672H1440M0 696H1440M0 720H1440M0 744H1440M0 768H1440M0 792H1440M0 816H1440M0 840H1440M0 864H1440M0 888H1440M0 912H1440M0 936H1440" stroke="#BCA98B" stroke-width="0.5"/>
</g>
<defs>
<clipPath id="clip0_0_20">
<rect width="1440" height="960" fill="white"/>
</clipPath>
</defs>
</svg>
